<?xml version="1.0" encoding="utf-8"?>
<!-- Generator: Adobe Illustrator 26.1.0, SVG Export Plug-In . SVG Version: 6.00 Build 0)  -->
<svg version="1.1" id="Layer_1" xmlns="http://www.w3.org/2000/svg" xmlns:xlink="http://www.w3.org/1999/xlink" x="0px" y="0px"
	 viewBox="0 0 2603.7747 520.7642" style="enable-background:new 0 0 2603.7747 520.7642;" xml:space="preserve">
<style type="text/css">
	.st0{fill:#185EA9;}
	.st1{fill:#2B5E95;}
	.st2{fill:#3C7DB7;}
	.st3{fill:#26638E;}
	.st4{fill:#1F2021;}
	.st5{fill:#989B9D;}
	.st6{fill:#5C5D5F;}
</style>
<g>
	<path class="st0" d="M336.14,322.849c12.4633-7.2659,24.9035-14.5717,37.3947-21.7891
		c22.5483-13.0283,45.127-26.0042,67.6937-39.0007c1.7252-0.9935,3.4432-2.0007,5.1874-2.96
		c5.4876-3.018,5.5349-3.0104,5.5367,3.0388c0.0127,41.287-0.0387,82.5742,0.0803,123.8608
		c0.0109,3.7675-1.1046,6.1031-4.4139,8.0051c-25.167,14.4647-50.2303,29.1095-75.3683,43.6249
		c-22.4089,12.9394-44.8812,25.7692-67.309,38.6763c-24.0084,13.8169-48.0021,27.6592-71.9824,41.5249
		c-1.4173,0.8195-2.6571,1.9456-3.9794,2.9291c-0.6666,0-1.3332,0-1.9998,0c-2.9346-2.3476-2.4845-5.6694-2.4866-8.8255
		c-0.0236-36.4417-0.0107-72.8834-0.0133-109.325c-0.0004-5.1586,0.038-10.3184-0.4837-15.4433
		c0.7244-3.8255,4.1259-5.0195,6.891-6.6315c19.3954-11.307,38.8193-22.5655,58.2913-33.7411
		c11.5385-6.6223,23.078-13.2466,34.5122-20.0459c2.9165-1.7343,6.295-2.4108,9.033-4.4294
		C334.053,321.2733,334.9822,322.8022,336.14,322.849z"/>
	<path class="st1" d="M227.9799,0c23.955,13.9307,47.8939,27.8893,71.8698,41.784c22.5457,13.0659,45.1256,26.073,67.6996,39.09
		c25.0189,14.4268,50.0486,28.8346,75.0721,43.2533c2.1574,1.2431,4.2649,2.5791,6.4648,3.7411
		c3.2412,1.7119,2.765,3.068-0.1138,4.7229c-14.6771,8.4375-29.3103,16.9512-43.9536,25.4474
		c-22.9669,13.3255-45.9296,26.6583-68.894,39.9881c-2.8395,0.2621-5.1302-1.1663-7.4196-2.4918
		c-31.8837-18.4587-63.8367-36.7973-95.7337-55.2331c-3.054-1.7652-5.645-4.202-8.7648-5.8721
		c-0.5823-0.6605-1.2239-1.27-1.4074-2.1893c-0.2819-1.3234-0.2988-2.6562-0.2999-3.9872
		c-0.0322-40.1061-0.0245-80.2122-0.0088-120.3182c0.0011-2.9122,0.165-5.7583,2.4896-7.935C225.9801,0,226.98,0,227.9799,0z"/>
	<path class="st2" d="M226.9648,395.3542c0.02,41.8,0.02,83.6,0.02,125.41h-3c-14.55-3.42-26.1901-12.63-38.8-19.79
		c-57.41-32.64-114.51-65.85-171.8501-98.61c-2.8899-1.65-5.73-3.39-8.5599-5.14c-1.97-1.23-3.59-2.66-4.17-4.95
		c-0.04-0.1201-0.0599-0.2401-0.09-0.3701c0.01-0.04,0.01-0.08,0.03-0.12c0.63-3.54,3.41-5.16,6.1801-6.7599
		c23.1299-13.42,46.2999-26.78,69.4199-40.21c12.35-7.17,24.8201-14.15,36.95-21.69c1.2101-0.75,2.3701-1.07,3.6901-1.12
		c0.39-0.14,0.76-0.21,1.12-0.23c1.39-0.07,2.6,0.66,3.84,1.37c33.8,19.5,67.75,38.74,101.4601,58.4
		c1.0399,0.61,2.23,1.14,2.75,2.09c0.33,0.58,0.3999,1.33,0.02,2.35C227.3048,389.0042,226.9648,392.2042,226.9648,395.3542z"/>
	<path class="st1" d="M118.5047,314.9142c0,2.33,0.05,4.65-0.6,6.86c-0.21,0.71-0.48,1.41-0.86,2.09
		c-23.6801,13.8-47.36,27.58-71.02,41.41c-15.0499,8.79-30.0599,17.66-45.09,26.49c-0.1101,0.27-0.22,0.44-0.3301,0.51
		c-0.1899,0.11-0.3899-0.04-0.6-0.46v-261.87c3.27-1.34,6.02,0.09,8.7301,1.66c26.1899,15.14,52.46,30.15,78.6299,45.34
		c8.6201,5,17.4301,9.7,25.88,15c2.27,1.43,4.6901,2.8,5.25,5.76c0.03,0.12,0.05,0.25,0.0699,0.38
		C118.3847,237.0342,118.5348,275.9742,118.5047,314.9142z"/>
	<path class="st2" d="M116.2038,197.0759c-18.5554-11.7523-37.9131-22.1319-56.8857-33.1697
		C39.6242,152.4488,19.779,141.2512,0,129.94c0-0.3332,0-0.6664,0-0.9995c2.7268-4.6096,7.4487-6.7234,11.7936-9.2233
		c62.0371-35.6945,123.969-71.5708,185.9596-107.3457C206.1329,7.5355,214.1537,1.821,223.9803,0c0.3333,0,0.6666,0,0.9999,0
		c0.061,44.3871,0.122,88.7743,0.183,133.1614c0.4771,3.2827-2.0637,4.4206-4.2057,5.7194
		c-15.5087,9.4036-31.3689,18.2058-47.0014,27.3992c-16.0624,9.4462-32.2405,18.6962-48.3999,27.975
		C122.7857,195.8458,120.1915,199.0941,116.2038,197.0759z"/>
	<path class="st3" d="M223.9848,520.7642c-14.55-3.42-26.1901-12.63-38.8-19.79c-57.41-32.64-114.51-65.85-171.8501-98.61
		c-2.8899-1.65-5.73-3.39-8.5599-5.14c-1.97-1.23-3.59-2.66-4.17-4.95c-0.1899,0.11-0.3899-0.04-0.6-0.46
		c0.1801-0.01,0.36-0.02,0.54-0.03c0.13,0,0.26-0.0099,0.39-0.02c27.49,15.86,54.97,31.72,82.47,47.56
		c29.6599,17.09,59.34,34.15,89,51.22c16.28,9.37,32.54,18.75,48.79,28.15C222.1948,519.2742,223.0548,520.0642,223.9848,520.7642z"
		/>
	<path class="st4" d="M2587.3047,134.8442c-1.3499-1.88-2.5898-3.83-3.8298-5.77c-0.8101-1.28-1.53-2.17,0.6099-3.41
		c4.53-2.63,4.45-7.26,3.1499-11.48c-1.21-3.96-4.97-4.98-8.7798-5.2c-2.1501-0.13-4.3301,0.05-6.49-0.04
		c-2.9402-0.12-4.28,1.16-4.2002,4.14c0.1001,3.66,0.03,7.33,0.03,10.99c0.01,3.83,0,7.65,0.01,11.48
		c0.02,2.3,1.1602,4.03,3.4299,4.12c2.5901,0.11,2.4902-2.13,2.52-3.98c0.03-1.5-0.0298-3,0.05-4.49
		c0.05-0.94-0.3499-2.22,0.77-2.66c1.3801-0.55,2.1501,0.7401,2.72,1.63c1.6001,2.51,3.0701,5.1,4.46,7.72
		c1.48,2.77,4.1201,2.61,6.01,1.57C2589.8748,138.3042,2588.4148,136.3742,2587.3047,134.8442z M2577.1848,121.9642
		c-3.6802,0.25-3.3701-2.17-3.4202-4.57c-0.0398-2.47,0.6902-3.96,2.4001-3.54c4.0999,0.3101,5.6299,1.85,5.5601,4.9
		C2581.6548,121.9042,2579.4548,121.8042,2577.1848,121.9642z"/>
	<path class="st4" d="M2575.7747,97.7842c-13.1399,0.25-25.52,11.03-25.96,26.02c-0.4299,14.94,11.25,27.76,25.52,28.09
		c13.8301,0.31,22.98-6.6,28.4399-18.96v-15.99C2598.5247,104.6042,2590.1248,97.5142,2575.7747,97.7842z M2576.9248,146.9142
		c-12.1802-0.85-21.79-10.16-21.1702-23.9301c0.51-11.2,10.2102-21.29,21.8401-20.7599c13.3,0.61,20.79,10.48,21.03,22.64
		C2598.8748,136.7342,2588.0747,147.1842,2576.9248,146.9142z"/>
	<path class="st0" d="M2272.9749,362.4242c-16.5901-21.33-33.05-42.75-49.5-64.18c-2.1802-2.84-6.54-5.65-5.75-8.7
		c0.8699-3.4,6.1299-3.91,9.3999-5.8c14.74-8.54,26.76-19.52,32.75-36.03c4.1199-11.35,4.5701-23.13,3.8201-34.92
		c-0.99-15.64-6.4602-29.86-16.55-41.89c-17.02-20.3-39.9102-29.16-65.5701-29.75c-37.47-0.85-74.97-0.12-112.46-0.33
		c-5.22-0.03-6.4099,1.78-6.3899,6.64c0.1699,36.14,0.0999,72.29,0.0999,108.43c0,36.31,0.0601,72.62-0.0801,108.93
		c-0.01,4.43,1.1902,6.15,5.9001,6.09c17.6499-0.23,35.3201-0.23,52.98,0c4.77,0.07,6.3401-1.39,6.28-6.22
		c-0.23-19.65-0.1401-39.31-0.0801-58.96c0.04-11.04-1.0901-9.12,9.9299-10.07c8.7202-0.74,14.55,1.92,18.4001,9.67
		c1.0898,2.2,2.9399,4.0099,4.3899,6.03c13.3501,18.58,26.74,37.14,39.97,55.8c1.9602,2.77,4.1401,3.74,7.4502,3.72
		c20.3298-0.12,40.6499-0.04,60.98-0.1c1.8699-0.0099,4.3899,0.87,5.3699-1.46
		C2275.3147,366.9442,2274.7346,364.6942,2272.9749,362.4242z M2195.4749,236.4442c-4.8601,8.88-13.3401,11.06-22.3401,11.32
		c-13.46,0.39-26.9399,0.02-40.4099,0.16c-3.6501,0.04-4.9802-1.28-4.9502-4.94c0.1301-14.79,0.1101-29.59,0.01-44.38
		c-0.02-3.39,1.1802-4.79,4.6501-4.72c7.48,0.15,14.97,0.05,22.45,0.05c0-0.01,0-0.02,0-0.02c6.49,0,13,0.39,19.45-0.09
		c12.48-0.93,23.3999,10.53,24.3901,22.78C2199.2847,223.4442,2198.8948,230.2042,2195.4749,236.4442z"/>
	<path class="st0" d="M2025.6847,362.4042c-4.98-10.68-9.7899-21.44-14.6-32.2c-10.71-23.93-21.37-47.88-32.04-71.84
		c-7.8199-17.58-15.6-35.19-23.45-52.77c-8.9299-20-17.97-39.96-26.85-59.9901c-1.5601-3.52-3.73-4.8-7.65-4.7599
		c-18.66,0.21-37.3199,0.19-55.99,0.02c-3.79-0.04-5.66,1.44-7.1,4.74c-7.79,17.79-15.6901,35.52-23.65,53.23
		c-10.95,24.38-22.04,48.7-32.98,73.08c-13.79,30.73-27.46,61.52-41.25,92.2599c-2.89,6.42-2.89,6.64,3.99,6.65
		c19.16,0.02,38.3199-0.15,57.48,0.11c4.47,0.06,6.52-1.64,7.98-5.55c3.5601-9.48,7.4601-18.82,11.13-28.25
		c1.05-2.68,2.3-4.36,5.6801-4.34c31,0.12,61.99,0.1,92.99,0.02c3.1799,0,4.61,1.26,5.73,4.22c3.6899,9.78,7.9301,19.35,11.59,29.14
		c1.35,3.62,3.38,4.77,7.04,4.71c9.83-0.17,19.66-0.06,29.5-0.06c8.99,0.01,17.99,0.01,26.99,0
		C2029.6847,370.8242,2029.6047,370.8142,2025.6847,362.4042z M1915.9647,277.8842c-7.65-0.08-15.2999-0.02-22.95-0.03
		c-7.98,0-15.9701-0.05-23.9501,0.02c-3.24,0.03-4.0599-0.92-2.74-4.15c8.48-20.6801,16.8-41.4301,25.2001-62.15
		c0.34-0.85,0.1599-2.31,1.45-2.31c1.39,0,1.53,1.41,1.96,2.49c8.15,20.46,16.26,40.93,24.61,61.31
		C1921.3147,277.3742,1919.5348,277.9242,1915.9647,277.8842z"/>
	<path class="st0" d="M2385.5537,297.2316c-1.3174,1.8321-0.7263,3.8851-0.7312,5.7898
		c-0.0515,20.4886-0.1914,40.9795,0.0754,61.4648c0.0671,5.1492-1.6477,6.5104-6.5906,6.4391
		c-17.6597-0.2545-35.3264-0.1865-52.9888-0.0399c-3.9883,0.0331-5.5869-1.1215-5.5815-5.3579
		c0.0959-73.1265,0.0886-146.2531,0.0154-219.3796c-0.0039-3.8177,1.1809-5.3013,5.1543-5.2682
		c18.1621,0.1512,36.3274,0.1572,54.4893-0.0062c4.1365-0.0372,5.4841,1.4011,5.4543,5.4912
		c-0.1475,20.1545-0.063,40.3107-0.0603,60.4664c0.0002,1.9793,0.0002,3.9586,0.0002,6.9752
		c6.1641-4.4907,9.4814-10.3002,13.5347-15.3049c14.8108-18.2876,29.3193-36.8205,43.8799-55.3093
		c1.7048-2.1643,3.8774-2.2589,6.248-2.2577c22.9961,0.0124,45.9922-0.009,68.988,0.0418c1.7166,0.0038,3.9519-0.7059,4.8967,1.4476
		c0.9839,2.2437-0.1807,4.251-1.6082,5.9378c-4.2847,5.0646-8.665,10.0483-12.9795,15.0877
		c-11.5374,13.4749-23.0457,26.9748-34.5928,40.4411c-10.4712,12.2118-20.9834,24.3881-31.467,36.5892
		c-3.554,4.1362-9.2473,7.6602-9.9121,12.7103c-0.6907,5.245,5.9648,8.1521,9.2764,12.079
		c10.1597,12.0481,21.189,23.359,31.7026,35.1152c12.0513,13.4755,23.8933,27.1374,35.863,40.6856
		c5.9338,6.7163,11.9475,13.3624,17.9324,20.0333c1.2156,1.3546,2.6538,2.4916,3.407,4.2555
		c1.5959,3.7375,0.7478,5.3976-3.3506,5.4096c-24.6624,0.0724-49.3247,0.0846-73.9866-0.0009
		c-5.2578-0.0182-7.3013-4.864-10.1001-8.0197c-11.7688-13.2693-23.1689-26.8657-34.6812-40.3622
		c-6.7761-7.9442-13.5137-15.921-20.249-23.8999C2387.0471,297.84,2386.5598,297.2262,2385.5537,297.2316z"/>
	<path class="st4" d="M1231.4747,265.0042c-5.34-5.77-12.11-9.54-20.29-13.07c10.7301-5.5,19.05-12.14,24.16-22.04
		c5.67-10.99,6.4401-22.6,4.67-34.75c-1.8301-12.52-6.27-23.65-15.15-32.66c-15.0699-15.3-34.42-20.91-54.98-21.34
		c-35.64-0.74-71.3101-0.11-106.97-0.31c-4.8401-0.03-6.12,1.32-6.11,6.13c0.1499,72.62,0.1499,145.24,0,217.86
		c-0.01,4.83,1.3199,6.14,6.1299,6.11c31.9901-0.21,63.9901,0.06,95.9801-0.19c14.21-0.11,28.3999-1.12,42.24-4.92
		c12.21-3.34,23.34-8.8,32-18.04c8.08-8.62,12.34-19.2,14.0299-31.09C1249.9948,296.8642,1245.0448,279.6842,1231.4747,265.0042z
		 M1094.8247,179.9242c-0.0399-3.93,1.16-5.16,5.0901-5.08c10.99,0.23,21.99,0.08,32.98,0.08c10.8199,0,21.6699-0.4,32.47,0.11
		c11.14,0.52,21.45,3.72,29.4401,12.2599c7.5399,8.06,11.08,17.47,7.62,28.1201c-3.41,10.53-12.03,16-22.39,18.34
		c-7.5701,1.71-15.3401,2.27-23.17,2.19c-18.99-0.17-37.97-0.15-56.96,0.02c-3.9401,0.04-5.12-1.18-5.0801-5.09
		C1095.0148,213.8942,1095.0148,196.9042,1094.8247,179.9242z M1196.2047,327.7542c-10.49,6.09-22.1499,7.69-33.86,7.96
		c-20.7899,0.46-41.6,0.04-62.4,0.2c-3.88,0.03-5.1599-1.08-5.12-5.05c0.1801-18.97,0.2101-37.93-0.01-56.9
		c-0.0499-4.37,1.5801-5.25,5.52-5.16c10.48,0.22,20.9701,0.07,31.4501,0.07c10.1499,0,20.3099-0.25,30.46,0.06
		c14.1801,0.44,27.87,3.63,38.39,13.56C1214.3147,295.4042,1214.7448,316.9842,1196.2047,327.7542z"/>
	<path class="st4" d="M1736.7147,367.5442c-0.63-1.17-1.25-2.36-2.0599-3.39c-4.88-6.29-10.4501-11.98-15.77-17.8799
		c-16.42-18.2-32.66-36.54-48.9601-54.85c-0.85-0.95-2.58-1.74-2.0399-3.13c0.46-1.17,2.13-1.21,3.48-1.49
		c12.99-2.67,24.9399-7.54,34.83-16.75c12.4401-11.6,18.6-26.03,20.86-42.74c2.6001-19.24-1.0399-37.01-11.5199-53.09
		c-14.7001-22.55-37.0601-32.31-62.88-33.04c-35.4701-0.99-70.9801-0.15-106.4801-0.36c-4.97-0.03-6.46,1.2-6.4299,6.33
		c0.23,36.15,0.12,72.3,0.12,108.45c0.01,36.64,0.0699,73.29-0.08,109.94c-0.01,4.12,1.1499,5.5,5.34,5.37
		c8.8199-0.29,17.66-0.29,26.49,0c4.1899,0.13,5.36-1.26,5.33-5.38c-0.1799-22.82,0.01-45.64-0.1699-68.46
		c-0.04-4.22,1.3199-5.37,5.3999-5.29c12.66,0.23,25.3301,0.18,38,0.01c3.13-0.05,5.3401,0.93,7.37,3.21
		c8.79,9.91,17.76,19.67,26.5,29.63c12.9901,14.79,25.8401,29.7,38.75,44.57c0.92,1.07,2.02,1.61,3.4701,1.61
		c12.83-0.02,25.6599-0.05,38.5,0.02C1737.5747,370.8542,1737.8748,369.6842,1736.7147,367.5442z M1642.5248,256.8542
		c-19.8301,0.07-39.67-0.17-59.49,0.16c-5.25,0.09-6.42-1.6-6.28-6.49c0.33-11.65,0.11-23.32,0.11-34.98
		c0-11.83,0.11-23.66-0.0701-35.48c-0.0499-3.72,0.8101-5.27,4.9501-5.23c21.66,0.19,43.33-0.28,64.99,0.21
		c15.6899,0.35,29.17,5.92,37.21,20.53c12.7001,23.04,3.36,55-26.0599,60.43
		C1652.7347,256.9542,1647.6448,256.8342,1642.5248,256.8542z"/>
	<path class="st4" d="M1307.8899,255.919c-0.0005-36.3044,0.0852-72.6094-0.1047-108.9128
		c-0.0249-4.7457,1.1616-6.1927,6.0631-6.176c51.9774,0.1763,103.9561,0.1693,155.9335,0.0079
		c4.7249-0.0147,6.4341,1.1019,6.1942,6.0477c-0.403,8.3072-0.3815,16.6603-0.0057,24.9701
		c0.2164,4.7865-1.1917,6.1933-6.0769,6.1678c-38.1494-0.1992-76.3005-0.1097-114.451-0.1093
		c-10.5637,0.0001-10.5638,0.0002-10.5638,10.458c0.0001,14.4885,0.1926,28.9809-0.1082,43.4632
		c-0.0991,4.7728,1.1926,6.1933,6.0801,6.1676c37.9829-0.1994,75.9678-0.0266,113.9509-0.2128
		c4.7531-0.0233,6.4286,1.1487,6.1729,6.0701c-0.4055,7.8061-0.3468,15.6587-0.0157,23.4718
		c0.1857,4.3792-1.149,5.6546-5.5846,5.6337c-36.4836-0.1719-72.9688-0.0961-109.4534-0.0954
		c-1.8325,0.0001-3.6913,0.1998-5.4924-0.0379c-4.3622-0.5755-5.7179,1.0693-5.6498,5.5229
		c0.2549,16.6495,0.2446,33.3073,0.0052,49.9573c-0.0626,4.3662,1.1528,5.6498,5.5881,5.6315
		c39.9825-0.165,79.9661-0.0978,119.9492-0.0921c6.5256,0.0009,6.5358,0.0161,6.5428,6.4771
		c0.0093,8.4933-0.177,16.9919,0.0785,25.4774c0.1183,3.9309-1.1556,5.1125-5.0875,5.093
		c-28.8202-0.1433-57.6415-0.075-86.4624-0.0746c-23.99,0.0003-47.9806-0.1056-71.969,0.0936
		c-4.3684,0.0362-5.651-1.1573-5.63-5.5871C1307.9655,328.8613,1307.8905,292.39,1307.8899,255.919z"/>
	<path class="st4" d="M560.0094,255.8397c-1.243-19.1533,3.3954-38.0659,12.0565-55.8043
		c12.3687-25.3318,31.5474-43.7318,58.1569-54.1141c18.2208-7.1093,37.1721-9.8767,56.4437-8.7903
		c25.1479,1.4178,48.1352,9.4932,67.8826,25.7541c2.6987,2.2222,5.2,4.6113,7.8048,6.9103
		c1.9884,1.7551,2.4603,3.0102,0.2078,5.0746c-6.9778,6.3949-13.7937,12.968-20.6036,19.5432
		c-1.8391,1.7757-3.27,1.6443-5.1017-0.0508c-18.8511-17.4455-41.6782-23.588-66.5352-21.2357
		c-35.8766,3.3952-61.7867,23.9512-70.7721,60.212c-7.0877,28.603-2.7222,56.113,16.321,79.6729
		c10.989,13.5955,26.1072,21.1241,43.1283,24.6845c21.1181,4.4173,41.4473,2.1284,60.719-7.8069
		c6.7703-3.4904,13.337-7.3943,18.6223-13.006c1.9785-2.1007,3.3022-1.9397,5.2454,0.0548
		c6.9743,7.1586,14.0506,14.2203,21.1993,21.2052c2.2207,2.1699,1.8974,2.967-0.4625,5.2215
		c-8.7406,8.3501-18.6409,14.8413-29.4686,19.9633c-12.0214,5.6866-24.6495,9.2169-37.9532,10.6064
		c-24.276,2.5354-47.8395,0.4197-70.6329-8.8827c-23.1772-9.4591-40.5477-25.2655-52.2601-47.2153
		C563.8349,298.7737,559.0828,278.3443,560.0094,255.8397z"/>
	<path class="st4" d="M881.9268,322.9956c-0.0014-13.8259-0.1109-27.6533,0.0774-41.4765c0.0458-3.3599-0.9154-6.0512-2.7088-8.7448
		c-26.4639-39.7503-52.8907-79.5254-79.3107-119.3048c-1.8277-2.7519-3.6215-5.5342-5.2683-8.3959
		c-1.4152-2.4594-0.9848-4.1212,2.2959-4.1179c12.8311,0.0127,25.6622,0.0192,38.4932,0.0003
		c2.349-0.0035,3.4299,1.4706,4.5454,3.2637c19.5446,31.4179,39.1687,62.7864,58.6669,94.233
		c1.6464,2.6553,2.1015,2.0495,3.4895-0.1231c12.6268-19.7654,25.3736-39.4542,38.066-59.1778
		c7.5987-11.8081,15.1807-23.6271,22.7264-35.469c1.3021-2.0434,3.0056-2.7886,5.4097-2.7734
		c12.3307,0.0781,24.6624,0.012,36.9935,0.0635c1.3966,0.0058,3.2914-0.6923,4.0634,0.9135
		c0.8071,1.6789-0.593,3.1122-1.5079,4.4612c-11.9612,17.636-23.9337,35.2643-35.9063,52.8925
		c-16.7973,24.732-33.55,49.4945-50.4612,74.1484c-1.9044,2.7765-2.7232,5.4774-2.7148,8.7686
		c0.0704,27.6515-0.0679,55.3042,0.1426,82.9543c0.0355,4.6686-1.4197,5.9688-5.923,5.8042
		c-8.6537-0.3161-17.3345-0.3053-25.9891-0.0033c-4.28,0.1494-5.3204-1.4061-5.2602-5.441
		C882.0577,351.3156,881.9283,337.1546,881.9268,322.9956z"/>
	<path class="st5" d="M225.9484,133.9985c9.0686,3.3261,16.8022,9.1127,25.1267,13.789
		c21.1693,11.8919,42.1277,24.159,63.1617,36.2913c6.7271,3.8802,13.4112,7.8353,20.1555,11.6853
		c0.9746,0.5563,1.4665,1.27,1.7326,2.2626c0.005,41.6075,0.0101,83.2149,0.0151,124.8224
		c-0.7254,1.1593-1.9171,0.9215-3.0027,1.0012c-3.2356,0.4048-5.9591-0.931-8.6401-2.4861
		c-31.5326-18.2905-63.0558-36.5985-94.7502-54.6066c-4.6483-2.6411-6.3943-5.8005-6.3676-11.1286
		c0.1889-37.6131,0.1001-75.2276,0.1057-112.8417C223.4855,139.6377,223.1778,136.3814,225.9484,133.9985z"/>
	<path class="st4" d="M2587.3047,134.8442c-1.3499-1.88-2.5898-3.83-3.8298-5.77c-0.8101-1.28-1.53-2.17,0.6099-3.41
		c4.53-2.63,4.45-7.26,3.1499-11.48c-1.21-3.96-4.97-4.98-8.7798-5.2c-2.1501-0.13-4.3301,0.05-6.49-0.04
		c-2.9402-0.12-4.28,1.16-4.2002,4.14c0.1001,3.66,0.03,7.33,0.03,10.99c0.01,3.83,0,7.65,0.01,11.48
		c0.02,2.3,1.1602,4.03,3.4299,4.12c2.5901,0.11,2.4902-2.13,2.52-3.98c0.03-1.5-0.0298-3,0.05-4.49
		c0.05-0.94-0.3499-2.22,0.77-2.66c1.3801-0.55,2.1501,0.7401,2.72,1.63c1.6001,2.51,3.0701,5.1,4.46,7.72
		c1.48,2.77,4.1201,2.61,6.01,1.57C2589.8748,138.3042,2588.4148,136.3742,2587.3047,134.8442z M2577.1848,121.9642
		c-3.6802,0.25-3.3701-2.17-3.4202-4.57c-0.0398-2.47,0.6902-3.96,2.4001-3.54c4.0999,0.3101,5.6299,1.85,5.5601,4.9
		C2581.6548,121.9042,2579.4548,121.8042,2577.1848,121.9642z"/>
	<path class="st4" d="M2587.3047,134.8442c-1.3499-1.88-2.5898-3.83-3.8298-5.77c-0.8101-1.28-1.53-2.17,0.6099-3.41
		c4.53-2.63,4.45-7.26,3.1499-11.48c-1.21-3.96-4.97-4.98-8.7798-5.2c-2.1501-0.13-4.3301,0.05-6.49-0.04
		c-2.9402-0.12-4.28,1.16-4.2002,4.14c0.1001,3.66,0.03,7.33,0.03,10.99c0.01,3.83,0,7.65,0.01,11.48
		c0.02,2.3,1.1602,4.03,3.4299,4.12c2.5901,0.11,2.4902-2.13,2.52-3.98c0.03-1.5-0.0298-3,0.05-4.49
		c0.05-0.94-0.3499-2.22,0.77-2.66c1.3801-0.55,2.1501,0.7401,2.72,1.63c1.6001,2.51,3.0701,5.1,4.46,7.72
		c1.48,2.77,4.1201,2.61,6.01,1.57C2589.8748,138.3042,2588.4148,136.3742,2587.3047,134.8442z M2577.1848,121.9642
		c-3.6802,0.25-3.3701-2.17-3.4202-4.57c-0.0398-2.47,0.6902-3.96,2.4001-3.54c4.0999,0.3101,5.6299,1.85,5.5601,4.9
		C2581.6548,121.9042,2579.4548,121.8042,2577.1848,121.9642z"/>
	<path class="st6" d="M221.452,133.1982c-9.0685,3.3261-16.8022,9.1127-25.1267,13.789
		c-21.1693,11.8919-42.1277,24.159-63.1617,36.2913c-6.7272,3.8802-13.4112,7.8353-20.1555,11.6853
		c-0.9746,0.5563-1.4665,1.27-1.7326,2.2626c-0.0051,41.6075-0.0101,83.2149-0.0152,124.8224
		c0.7254,1.1593,1.9171,0.9215,3.0028,1.0012c3.2356,0.4048,5.9591-0.931,8.6401-2.4861
		c31.5326-18.2905,63.0558-36.5985,94.7502-54.6066c4.6483-2.6411,6.3943-5.8005,6.3676-11.1286
		c-0.1889-37.6131-0.1001-75.2276-0.1057-112.8417C223.9149,138.8374,224.2226,135.5812,221.452,133.1982z"/>
</g>
</svg>
